<?xml version="1.0" encoding="UTF-8"?>
<svg id="Layer_1" data-name="Layer 1" xmlns="http://www.w3.org/2000/svg" viewBox="0 0 100 100">
  <defs>
    <style>
      .cls-1 {
        fill: #fff;
      }

      .cls-2 {
        fill: #777;
      }
    </style>
  </defs>
  <rect class="cls-2" width="100" height="100"/>
  <g>
    <path class="cls-1" d="M17.19,70.04v6.53H82.77v-6.53H17.19Zm63.11,4.27H19.66v-2.01h60.64v2.01Z"/>
    <path class="cls-1" d="M34.81,47.24c0,1.53-1.24,2.76-2.76,2.76s-2.76-1.24-2.76-2.76,1.24-2.76,2.76-2.76,2.76,1.24,2.76,2.76Z"/>
    <path class="cls-1" d="M88.3,49.82s-.44,4.92-4.88,6.76c-.02,.02-.02,.04-.04,.02-1.52,.63-3.53,.89-6.15,.46-5.98-.99-7.71-4.75-8.15-7.31-.25-1.44-.13-2.49-.13-2.49h-2.11s-.02,.97-.82,1.99c-.91,1.16-2.87,2.34-7.08,2.11-6.48-.36-7.98-6.57-8.22-11.02v-.02c-.15-2.53,.13-4.5,.13-4.5h-1.88s.27,1.88,.17,4.35v.02c-.17,4.46-1.56,10.79-8.13,11.17-4.2,.23-6.17-.95-7.08-2.11-.8-1.01-.82-1.99-.82-1.99h-2.11s.13,1.06-.13,2.49c-.44,2.56-2.18,6.31-8.15,7.31-2.72,.44-4.77,.15-6.31-.53l-.02-.02c-4.29-1.88-4.73-6.7-4.73-6.7h-1.54l2.11,5.77,4.96,13.56H82.77l4.96-13.58s.02-.02,.02-.04l2.09-5.7h-1.54Zm-53.96,13.52c-1.52,0-2.77-1.25-2.77-2.77s1.25-2.77,2.77-2.77,2.77,1.23,2.77,2.77-1.25,2.77-2.77,2.77Zm15.63,2.56l-3.44-7.1,3.44-7.1,3.46,7.1-3.46,7.1Zm15.65-2.56c-1.52,0-2.77-1.25-2.77-2.77s1.25-2.77,2.77-2.77,2.77,1.23,2.77,2.77-1.25,2.77-2.77,2.77Z"/>
    <path class="cls-1" d="M65.15,47.24c0,1.53,1.24,2.76,2.76,2.76s2.76-1.24,2.76-2.76-1.24-2.76-2.76-2.76-2.76,1.24-2.76,2.76Z"/>
    <polygon class="cls-1" points="45.21 32.61 49.98 23.44 54.75 32.61 49.98 41.77 45.21 32.61"/>
    <path class="cls-1" d="M21.82,58.62c-1.58,.59-3.43,.77-5.24,.22-.9-.27-1.74-.73-2.51-1.29-.75-.59-1.36-1.3-1.91-2.05-1.06-1.56-1.7-3.18-2.06-5.08-.35-2.05,.22-4.25,1.49-5.93,1.27-1.7,3.18-2.88,5.4-3.15,2.36-.28,4.84,.88,6.06,2.95,.57,1.04,.99,2.15,.79,3.54-.19,1.31-.93,2.49-1.99,3.16-1.02,.67-2.31,.91-3.53,.44-1.15-.49-1.8-1.7-1.59-2.67v-.03c.04-.16,.2-.26,.35-.22,.09,.02,.16,.08,.19,.15,.34,.64,.93,.99,1.47,.96,.49,0,1.04-.31,1.39-.69,.72-.83,.67-1.84,.03-2.83-.59-.93-1.72-1.52-2.84-1.4-1.2,.14-2.43,.81-3.2,1.81-.8,1-1.17,2.3-1.08,3.58,.14,1.37,.6,2.87,1.27,4.11,.72,1.23,1.69,2.28,2.96,2.9,1.27,.6,2.79,.72,4.31,.54,.28-.03,.54,.17,.58,.45,.03,.24-.11,.47-.33,.55h-.02Z"/>
    <path class="cls-1" d="M78.48,57.8c1.56,.09,3.05-.14,4.29-.78,1.23-.67,2.18-1.69,2.88-2.88,.68-1.19,1.12-2.58,1.29-3.92,.1-1.15-.23-2.29-.92-3.17-.68-.88-1.73-1.43-2.74-1.6-.85-.14-1.72,.29-2.19,.97-.5,.81-.64,1.28-.29,2.03,.2,.33,.59,.7,.95,.81,.42,.14,1.07,.02,1.57-.61l.05-.06c.1-.12,.28-.14,.4-.04,.06,.05,.1,.13,.1,.2,.06,.96-.66,1.96-1.71,2.34-1.11,.35-2.23,.05-3.11-.59-.9-.64-1.49-1.71-1.6-2.86-.1-1.2,.28-2.17,.82-3.09,1.16-1.8,3.42-2.77,5.51-2.42,1.97,.32,3.74,1.44,4.87,3.03,1.15,1.58,1.62,3.65,1.21,5.55-.38,1.76-1.06,3.42-2.13,4.87-1.04,1.46-2.55,2.62-4.27,3.2-1.72,.57-3.56,.52-5.19,.03-.27-.08-.43-.37-.35-.64,.07-.23,.29-.38,.52-.37h.04Z"/>
  </g>
</svg>