<?xml version="1.0" encoding="UTF-8"?>
<svg id="Layer_1" data-name="Layer 1" xmlns="http://www.w3.org/2000/svg" viewBox="0 0 100 100">
  <defs>
    <style>
      .cls-1 {
        fill: #91e891;
      }
    </style>
  </defs>
  <rect class="cls-1" width="100" height="100"/>
  <g>
    <path d="M28.33,53.58s0,0,0,0c0,0,0,0,.01,0,0,0,0,0,0,0Z"/>
    <path d="M92.41,46.52c-2.66,2.47-6.16,3.57-9.8,4.45,1.21-.68,2.41-1.34,3.47-2.31-.16,.02-.21,.03-.31,.04,1.18-.84,2.15-1.76,3.03-2.77-1.12,.94-2.25,1.84-3.56,2.58,.36-.35,.76-.66,1.12-1,.36-.35,.69-.72,1.01-1.09,.32-.37,.63-.76,.91-1.15,.27-.38,.51-.78,.76-1.17-.04-.02-.07-.05-.11-.07-1.89,2.82-4.6,4.81-8.03,6.1,2.58-1.62,4.83-3.49,6.15-6.07-.99,1.28-2.07,2.48-3.48,3.44-1.37,.93-4.06,2.22-4.52,2.2,1.21-.93,2.5-1.87,3.72-2.87,1.38-1.14,2.86-2.9,2.98-3.33-.82,.81-1.67,1.76-2.65,2.58-.98,.82-2.1,1.52-3.15,2.27l-.13-.12c.99-.58,1.73-1.35,2.24-2.28-.93,.84-1.76,1.77-2.97,2.35-1.74,.83-3.32,1.4-3.67,1.32,.48-.18,.97-.36,1.45-.55,.49-.2,.98-.42,1.46-.65,.45-.22,.88-.47,1.32-.71-.02-.03-.05-.07-.07-.1-.29,.13-.59,.26-.88,.38-.31,.13-.61,.27-.92,.4-.27,.11-.55,.21-.83,.31-.02-.03-.03-.06-.05-.09,2.71-1.29,4.88-3.09,6.64-5.27-1.35,1.33-2.81,2.55-4.55,3.5-1.74,.95-4.3,1.98-5.5,2.21,2.69-1.25,5.1-2.81,7.1-4.83-2.17,1.8-4.67,3.17-7.47,4.14,.09-.1,.2-.18,.32-.25,.52-.31,1.1-.57,1.55-.94,.97-.78,1.87-1.61,2.79-2.43,.24-.21,.45-.45,.62-.7,.16-.23,.21-.52,.37-.74,.42-.56,.9-1.09,1.32-1.64,.36-.46,.69-.95,1.03-1.43-.57,.43-.85,1.07-1.47,1.43,.24-.61,.48-1.21,.72-1.8-.32,.48-.58,.98-.83,1.47-.34,.69-.68,1.39-1.33,1.92-1.23,1-2.47,1.98-3.66,3-.94,.8-2.12,1.17-3.3,1.56-.04,.01-.09,0-.21-.02,2.49-1.4,4.13-3.35,5.49-5.51-1.95,2.34-4.12,4.44-7.37,5.43,.66-.45,1.36-.85,2.01-1.31,.66-.47,1.27-.99,1.87-1.51,.59-.51,1.16-1.05,1.7-1.6,.55-.57,1.07-1.15,1.55-1.76,.48-.61,.91-1.25,1.32-1.89,.39-.62,.77-1.26,.98-1.95-.45,.65-.84,1.32-1.3,1.95-.46,.63-.96,1.25-1.52,1.82-.55,.56-1.18,1.07-1.79,1.58-.62,.53-1.23,1.06-1.88,1.56-.63,.48-1.31,.91-1.96,1.37-.03-.03-.06-.06-.09-.09,1.82-1.32,3.56-2.71,5.09-4.29-.08,0-.12,.02-.16,.04-.98,.76-1.94,1.52-2.94,2.26-.59,.44-1.18,.95-1.88,1.21-.77,.28-1.34,.79-2.08,1.08-.65,.25-1.32,.46-1.99,.66-.16,.05-.37-.03-.64-.07,.11-.11,.12-.13,.14-.14,1.87-.62,3.53-1.55,5.07-2.64,.85-.6,1.64-1.23,2.28-2.03,.62-.79,1.42-1.47,2.15-2.2-.03-.02-.06-.05-.09-.07-1.92,1.82-4.02,3.45-6.44,4.73,.91-.81,1.83-1.62,2.73-2.45,.79-.72,2.13-2.46,2.23-2.83-1.07,1.16-2.08,2.36-3.34,3.35-.03-.02-.06-.04-.09-.06,.12-.15,.24-.31,.34-.43-.81,.63-1.61,1.29-2.47,1.9-.87,.62-2.54,1.32-2.9,1.27,1.58-1.25,3.03-2.61,4.16-4.21,1.28-1.81,2.62-4.44,2.5-5-.23,.33-.47,.7-.72,1.05-.54,.75-1.06,1.51-1.62,2.24-.88,1.13-1.73,2.3-2.72,3.36-1.07,1.15-2.54,1.88-4.06,2.54-.09,.04-.2,.04-.29,.06-.02-.03-.04-.06-.06-.09,1.55-.71,2.99-1.55,4.18-2.67,1.18-1.11,2.19-2.31,2.8-3.76-1.77,2.78-4.47,4.65-7.73,5.97,2.76-1.52,5.36-3.19,7-5.74-.14,.07-.23,.18-.34,.28-.66,.63-1.31,1.25-1.99,1.86-.09,.09-.37,.13-.48,.07-.27-.15-.49-.37-.7-.54,.76-.94,1.49-1.85,2.22-2.76-.02-.02-.05-.03-.07-.04-.82,.86-1.65,1.72-2.45,2.56-.66-.43-1.21-.81-1.79-1.16-.22-.14-.25-.28-.16-.46,.3-.61,.6-1.23,.93-1.83,.27-.5,.57-1.58,.51-2.08-.48,1.29-1.09,2.46-1.79,3.6-.03-.01-.07-.02-.1-.04,.34-.83,.68-1.66,1.03-2.49-.04-.02-.08-.03-.11-.04-.45,.88-.89,1.75-1.35,2.65-.37-.21-.7-.4-1.03-.59-.71-.39-.7-.39-.43-1.06,.13-.33,.24-.68,.36-1.01-.04,0-.08-.02-.12-.03-.27,.5-.54,1-.81,1.5-.57-.14-.55-.14-.42-.56,.12-.37,.2-.75,.29-1.12-.2,.34-.39,.69-.49,1.06-.08,.29-.23,.29-.46,.18-1.03-.47-1.01-.47-.66-1.43,.13-.37,.19-.77,.29-1.15-.32,.54-.57,1.09-.8,1.65-.08,.22-.22,.26-.43,.17-.39-.16-.77-.34-1.16-.5-.21-.09-.27-.19-.2-.4,.26-.74,.49-1.49,.72-2.25,.12-.42,.2-.85,.31-1.27-.46,1.02-.86,2.04-1.26,3.06-.22,.56-.22,.56-.86,.33-.02,0-.05-.02-.08-.02-1.56-.45-3.12-.94-4.69-1.34-1.2-.3-2.41-.56-3.64-.73-2.98-.43-5.99-.53-9-.32-.18,.01-.39,.07-.52,0-.12-.06-.14-.26-.24-.47,.09,.49-.14,.63-.6,.62-.23,0-.46,.05-.69,.08-1.27,.19-2.56,.35-3.82,.59-.88,.17-1.72,.48-2.58,.72-.29,.08-.58,.15-.91,.23,.12-.54,.23-1,.34-1.47-.22,.41-.32,.84-.48,1.25-.07,.17-.23,.36-.41,.43-1,.41-2.04,.74-3.02,1.17-1.16,.51-2.3,1.08-3.42,1.66-.35,.18-.47,.12-.65-.17-.54-.92-.92-1.89-1.19-2.9-.03,.11-.07,.24-.04,.34,.3,.91,.59,1.82,.94,2.73,.11,.3,.12,.45-.2,.64-.89,.51-1.78,1.05-2.61,1.63-.7,.48-1.33,1.04-1.99,1.56-.15,.11-.35,.19-.48,.32-.29,.27-.55,.55-.82,.83-.15,.15-.28,.18-.47,0-.26-.25-.58-.46-.87-.69-.04,.03-.07,.06-.11,.09,.28,.24,.55,.48,.84,.7,.17,.13,.2,.25,.07,.4-.69,.72-1.4,1.44-2.08,2.18-.34,.38-.62,.8-.93,1.2,.03,.02,.06,.03,.09,.05,.2-.22,.39-.46,.62-.66,.11-.09,.29-.1,.45-.14,.03,.06,.06,.15,.11,.17,.51,.21,1.01,.48,1.56,.59,1.38,.29,2.78,.24,4.17,.07,.63-.08,1.25-.17,1.88-.26-.4,.29-.71,.68-1.34,.67-.55,0-1.11,.1-1.66,.16,0,.02,0,.03,0,.05,.53,.03,1.05,.06,1.57,.08-.11,.3-.77,.76-1.19,.83-1.03,.19-2.07,.14-3.1,.06-.58-.04-1.16-.14-1.82-.22,1.52,.54,3.01,.71,4.57,.64-.31,.29-.62,.62-1.01,.74-.78,.24-1.61,.42-2.43,.53-1.13,.14-2.28,.18-3.32,.26,1.65,.24,3.39,.11,5.19-.15-.11,.13-.17,.2-.23,.28-1.13,1.22-2.26,2.43-3.38,3.65-.12,.14-.22,.3-.3,.46-.11,.2-.16,.43-.3,.61-.81,1.05-1.64,2.08-2.46,3.13-.3,.39-.5,.83-.45,1.3,.06,.48,.54,.81,.83,.91,.26,.08,.56,.1,.89,.05,.7-.11,1.4-.25,2.09-.4,1.99-.43,4.01-.64,6.05-.69,.56-.01,1.12-.03,1.68-.05-.07-.09-.15-.11-.22-.11-2.52-.25-5-.03-7.46,.39-.64,.11-1.28,.24-1.93,.35,0,0,0,0,0,0-.16,.03-.33,.05-.49,.07-.59,.08-.99-.26-.94-.73,0-.07,.02-.13,.05-.2,.1-.27,.24-.54,.41-.78,.67-.96,1.33-1.93,2.04-2.86,.44-.58,.74-1.25,1.42-1.69,.84-.54,1.65-1.11,2.49-1.66,.28-.18,.58-.34,.91-.53-.15,1.15-.69,2.2-.47,3.32,.24,1.22,.9,2.69,1.54,2.93-.82-1.14-1.27-2.37-1.09-3.7,.12-.91,.43-1.8,.69-2.69,.06-.2,.23-.4,.42-.54,.34-.24,.72-.43,1.09-.63,2.16-1.19,4.41-2.24,6.82-3.02,1.16-.38,2.34-.75,3.54-1.14,0,.1,0,.17-.01,.24-.37,.96-.59,1.95-.64,2.97-.1,2.41,.42,4.71,1.61,6.9,.79,1.44,1.83,2.72,3.38,3.62,.27,.16,.53,.38,.94,.24-.2-.17-.38-.33-.58-.49-.06,0-.21,0-.28-.05-.63-.54-1.36-1.03-1.83-1.66-.65-.86-1.11-1.84-1.65-2.77,0,0,0,0,0,0l-.46-1.23s0,0-.01,0c0,0,0,0,0,0-.1-.25-.19-.5-.28-.75,.03-.01,.07-.03,.1-.04,.12,.06,.24,.13,.46,.25-.18-.27-.39-.46,0-.56,.04-.01,.08-.13,.07-.19-.04-.24-.1-.48-.16-.75,.05-.03,.21-.09,.22-.17,.1-.47,.59-.53,.96-.7,.52-.24,1.3-.02,1.43,.33,.17,0,.33,.02,.55,.03-.11,.11-.18,.17-.33,.3,.7-.18,1.29-.33,1.87-.49,.01,.03,.02,.06,.03,.08-.29,.12-.58,.25-.87,.37-.74,.29-.74,.29-.32,.88,.01,.02,.05,.02,.08,.04,.53-.25,1.07-.5,1.61-.76,.04,.05,.07,.09,.11,.14-.06,.02-.11,.06-.16,.07-.62,.12-1.02,.53-1.47,.87-.09,.07-.13,.31-.06,.37,.09,.09,.3,.14,.46,.14,.14,0,.27-.11,.4-.17,.16-.08,.33-.16,.5-.24,.01,.02,.03,.04,.04,.06-.53,.43-1.05,.86-1.58,1.29,.88-.39,1.56-1.04,2.57-1.26-.71,.47-1.39,.93-2.07,1.38,.03,.03,.06,.07,.08,.1,.37-.21,.75-.42,1.13-.62,.02,.02,.04,.05,.06,.07-.68,.74-1.35,1.47-2.02,2.21,.02,.02,.04,.04,.07,.07,.44-.33,.88-.65,1.34-.98,.04,.07,.07,.12,.11,.17,.86-.43,1.49-1.14,2.47-1.3,.16,.11,.34,.18,.52,.24,.12,.03,.25,.02,.37,.05,.97,.22,1.95,.37,2.96,.28,.8-.08,1.63-.07,2.32-.53,.07-.05,.29-.03,.34,.03,.28,.28,.5,.62,.81,.89,.7,.61,1.43,1.19,2.16,1.77,.17,.14,.39,.22,.59,.32,.01-.02,.02-.04,.03-.06-.56-.5-1.12-.99-1.68-1.49,.03-.02,.06-.05,.09-.07,.58,.46,1.17,.91,1.75,1.39,.09,.07,.11,.22,.18,.4,.11,.05,.32,.14,.59,.26-.63-.72-1.22-1.39-1.8-2.06-.07-.09-.09-.21-.13-.32,.13,0,.3-.06,.4,0,.54,.25,1.06,.53,1.58,.81,.24,.13,.46,.26,.67,.12-.7-.45-1.4-.89-2.09-1.34,.03-.04,.07-.09,.1-.13,.41,.23,.81,.46,1.22,.7,.02-.03,.04-.05,.07-.08-.34-.26-.68-.53-1.02-.79,.02-.03,.05-.06,.07-.08,.13,.03,.26,.06,.4,.08,.02-.03,.03-.06,.05-.09-.87-.56-1.9-.9-2.79-1.44,.64,.2,1.24,.5,1.88,.68,.54,.15,.91,.84,1.64,.43,.04-.02,.16,.07,.25,.11,.46,.2,.93,.4,1.39,.6-1.53-1.09-3.4-1.6-5.13-2.35,2.2,.51,4.4,1.02,6.6,1.53,0-.02,.02-.05,.03-.08-1.52-.52-3.05-1.04-4.58-1.56,.7,.08,1.38,.22,2.07,.32,.68,.1,1.37,.15,2.05,.23,0-.02,.02-.05,.02-.08-1.71-.39-3.43-.77-5.14-1.16,0-.03,.01-.06,.02-.09,1.23,.18,2.47,.36,3.7,.54l.02-.11c-.34-.07-.68-.13-1.02-.2,0-.04,.02-.08,.02-.12,.97-.19,1.82,.37,2.76,.35,0,.04,0,.07,0,.11-.25,.04-.51,.07-.89,.13,1.03,.17,1.93,.32,2.84,.47,0,.02-.01,.05-.02,.07-.2,.07-.39,.15-.67,.25,.36,.13,.61,.22,.86,.31-.01,.02-.02,.05-.03,.07-.24,0-.49,.02-.83,.02,.22,.17,.35,.26,.47,.35-.02,.03-.04,.06-.06,.09-.23-.07-.46-.13-.68-.19,0,.02-.02,.04-.03,.06,.37,.26,.75,.53,1.11,.78,.16-.09,.28-.15,.4-.22l.1,.07c-.14,.26-.26,.53-.41,.79-.15,.29-.36,.34-.68,.14-.25-.15-.55-.24-.83-.36,.3,.29,.64,.5,.98,.72,.06,.04,.09,.12,.13,.18-.09,.02-.2,.06-.27,.03-.16-.06-.31-.15-.47-.23-.02,.03-.05,.06-.07,.09,.19,.15,.37,.3,.6,.49-.63,.78-1.24,1.55-1.82,2.27-.26-.12-.42-.2-.58-.27-.03,.03-.07,.05-.1,.08,.08,.18,.16,.35,.26,.56-.42,.34-.86,.69-1.35,1.09-.3-.63-.84-.26-1.28-.41,.2,.28,.38,.54,.55,.79-.04,.01-.07,.03-.11,.04-.16-.13-.33-.26-.49-.39l-.1,.07c.07,.11,.14,.21,.19,.33,.03,.07,.01,.15,.02,.22-.09-.02-.19,0-.26-.05-.07-.04-.11-.14-.17-.19-.13-.1-.27-.19-.4-.29-.02,.03-.04,.06-.07,.08,.06,.14,.12,.27,.21,.48-2.11-.02-4.13-.05-6.18-.07,.02-.41,.04-.75,.06-1.09-.02,0-.05,0-.07,0-.04,.34-.09,.68-.14,1.06-.2,.02-.42,.06-.64,.05-1.5-.07-2.99-.15-4.49-.21-.27-.01-.57,.06-.81-.02-.33-.11-.62-.17-.94-.03-.09,.04-.22,.02-.33,0-.96-.09-1.93-.18-2.89-.27-1.63-.17-3.25-.35-4.88-.51-.57-.06-1.14-.08-1.7-.09-.56-.02-1.13,0-1.69,0,.08,.05,.16,.07,.24,.07,2.43,.31,4.86,.61,7.29,.92,1.6,.21,3.2,.5,4.81,.65,1.75,.17,3.51,.24,5.27,.32,3.31,.15,6.62,.22,9.93,.12,1.66-.05,3.3-.25,4.91-.56,1.91-.37,3.73-.98,5.47-1.75,1.82-.8,3.51-1.79,5.07-2.92,.25-.18,.37-.18,.62-.02,1.42,.91,3.02,1.53,4.73,1.89,.96,.2,1.97,.26,2.96,.38,.18,.02,.36,.02,.53,.07,2.45,.73,4.93,.71,7.42,.27,1.76-.32,3.45-.82,5.04-1.54,.67-.3,1.3-.66,1.95-.99-.02-.03-.04-.07-.07-.1-1.67,.86-3.45,1.45-5.36,1.81-1.85,.35-5.19,.45-5.74,.13,.48-.08,.96-.16,1.45-.25,1.01-.19,2.03-.35,3.02-.58,.89-.2,1.75-.5,2.64-.72,2.21-.55,4.29-1.34,6.14-2.54,.25-.16,.5-.34,.73-.53,.23-.18,.45-.37,.58-.48-1.06,.57-2.22,1.19-3.38,1.8-.09,.04-.21,.03-.32,.04,0-.02,0-.04,0-.06,.58-.34,1.16-.68,1.75-1.01-.02-.03-.04-.05-.06-.08-1.2,.56-2.4,1.12-3.61,1.68-.03-.04-.07-.09-.1-.14,2.4-1.09,4.48-2.51,6.27-4.26-1.32,1.02-2.73,1.94-4.25,2.7,.82-.69,1.67-1.35,2.47-2.04,.81-.7,1.5-1.47,1.97-2.4-1.55,1.61-3.57,2.57-5.79,3.24,1.09-.7,2.22-1.37,3.27-2.12,1.25-.89,2.53-2.26,2.65-2.72-.17,.15-.3,.27-.43,.39-.94,.87-1.88,1.74-3.05,2.4-1.76,.99-3.66,1.73-5.64,2.34-.93,.29-1.86,.31-2.82,.21-.08,0-.16-.04-.3-.09,.73-.2,1.38-.37,2.04-.55,2.92-.8,5.67-1.89,8.16-3.43,.8-.49,1.52-1.08,2.26-1.65,.16-.12,.25-.31,.38-.46-.03-.02-.06-.05-.09-.07ZM28.11,35.58c.9-.25,1.82-.48,2.72-.71,.22-.06,.33-.04,.33,.21,.04,1.65,.24,3.28,.86,4.86,.03,.08,.04,.17,.07,.26-.05,.02-.11,.03-.16,.05-.6-.88-.6-1.92-.97-2.86-.04,0-.08,0-.12,.02,.18,.99,.36,1.98,.55,3-.23,.11-.37,0-.51-.24-.51-.86-1.02-1.73-1.25-2.69-.05,0-.09,.02-.14,.02,.08,.33,.11,.68,.24,1,.24,.59,.53,1.16,.8,1.74,.08,.18,.18,.35-.11,.44-.23,.07-.46,.17-.62-.13-.53-.97-1.14-1.91-1.6-2.9-.26-.55-.29-1.17-.39-1.77-.02-.1,.16-.28,.3-.32Zm-13.84,7.06c.25-.18,.49-.37,.68-.51,.97,.86,1.91,1.68,2.91,2.57-.37-.12-.71-.19-1-.33-.87-.42-1.72-.88-2.58-1.31-.29-.14-.21-.26-.02-.41Zm4.15,3.02c-1.69,.33-3.39,.71-5.15,.42-.61-.1-1.19-.34-1.79-.52-.02-.13-.09-.31-.02-.37,.75-.71,1.52-1.4,2.3-2.1,.02-.01,.05-.01,.11-.03,1.43,1.09,3.02,1.95,4.97,2.39-.16,.08-.28,.19-.42,.21Zm2.57-.84c-1.09-.06-2.03-.43-2.88-1.03-.27-.19-.64-.29-.87-.5-.38-.34-.69-.75-1.03-1.13-.04-.05-.04-.12-.06-.18-.07,.04-.13,.08-.19,.12,.34,.46,.68,.92,1.03,1.38l-.05,.05c-.57-.5-1.14-1-1.79-1.57,.78-.54,1.51-1.04,2.27-1.56,1.15,1.72,2.6,3.06,4.7,3.8-.1,.31-.7,.65-1.13,.63Zm2.85-1.7c-1.59-.94-2.76-2.17-3.62-3.64-.05-.08-.07-.17-.11-.29-.14,.36,.36,1.34,1.3,2.41,.62,.7,1.36,1.33,2.12,2.07-.27,.04-.53,.14-.74,.09-2.11-.51-3.73-1.62-4.94-3.2-.15-.19-.18-.34,.12-.5,.8-.42,1.57-.87,2.34-1.33,.23-.13,.37-.11,.5,.1,.97,1.55,2.13,2.98,3.67,4.15,0,0,0,.02,.02,.04-.18,.2-.37,.27-.66,.09Zm1.95-1.12c-.99-.85-1.73-1.83-2.01-3.03-.01-.06-.04-.11-.07-.17-.02-.04-.06-.07-.09-.11-.05,0-.09,.02-.13,.03,.07,.35,.1,.72,.24,1.06,.39,.92,.89,1.8,1.71,2.5,.08,.07,.13,.17,.2,.26-.02,.04-.05,.08-.07,.13-.18-.05-.42-.05-.54-.15-.88-.8-1.74-1.6-2.58-2.43-.38-.38-.71-.81-1.06-1.22-.12-.15-.22-.3-.38-.53,1.25-.54,2.43-1.06,3.7-1.61,.04,.3,.04,.53,.1,.76,.16,.6,.34,1.2,.52,1.8,.02,.06,.07,.15,.05,.16-.39,.32,.01,.56,.14,.78,.36,.6,.81,1.18,1.22,1.77-.42,.34-.54,.36-.95,0Zm2.54-.57c-.55,.23-.54,.24-.96-.16-1.27-1.24-1.98-2.69-2.29-4.3-.05-.28,.09-.42,.37-.51,.63-.2,1.24-.42,1.92-.65,.03,.11,.08,.22,.08,.32-.01,1.39,.54,2.66,1.24,3.89,.16,.28,.34,.55,.5,.84,.04,.07,.02,.16,.03,.24-.1-.02-.24-.02-.29-.08-.18-.17-.36-.34-.48-.54-.55-.9-1.07-1.82-1.61-2.73-.02-.03-.04-.06-.06-.09-.05,.02-.09,.03-.14,.05,.17,.44,.29,.89,.52,1.3,.39,.69,.84,1.35,1.28,2.02,.11,.18,.14,.3-.11,.4Zm4.94,7.81c.17,.06,.36,.08,.53,.2-.11,0-.23,0-.34-.02-.35-.08-.56,0-.63,.33-.02,.07-.13,.13-.21,.18-.17,.13-.34,.25-.56,.41-.09,0-.27-.01-.52-.02,.21,.2,.38,.35,.54,.49-.39-.09-.82-.15-1.2-.3-.44-.17-.83-.04-1.25,.02-.24,.04-.48,.02-.72,.03,0-.04-.02-.09-.02-.14,.29-.1,.58-.2,.86-.29,0-.02-.02-.03-.03-.05-.2,0-.4,0-.59,0,.14-.21,.19-.4,.32-.47,.2-.1,.46-.12,.7-.17,.14-.02,.29-.04,.43-.06,0-.04,0-.08,0-.12-.65-.28-1.37,.09-2.14-.19,.55-.05,.99-.1,1.42-.14,0-.03,.01-.06,.02-.1-.1-.06-.2-.13-.35-.22,.23,.04,.4,.07,.58,.1,.26,.04,.51,.05,.51-.29,0-.06,.05-.13,.1-.19,.2-.22,.4-.44,.67-.74-.39-.02-.64-.03-.89-.05,.46-.25,.94-.14,1.41-.07,.82,.13,1.03,.32,1.15,1.02,.04,.24,.13,.36,.43,.37,.2,0,.4,.07,.59,.17-.24-.01-.49-.03-.74-.03-.08,0-.15,.07-.23,.1,.06,.07,.11,.16,.19,.19Zm-.74,3.51s-.03-.06-.05-.08c.54-.23,1.08-.46,1.63-.7,.02,.04,.05,.09,.08,.13-.55,.21-1.11,.43-1.66,.65Zm3.38-13.39c-.07-.02-.14-.03-.21-.05,.15-.55,.3-1.1,.45-1.64,.03,0,.07,.02,.11,.03-.16,.54,.07,1.17-.34,1.66Zm-.41-1.07c-.11,.3-.2,.6-.26,.9-.08,.41-.47,.36-.77,.37-.08,0-.24-.25-.26-.4-.11-.78-.21-1.55-.26-2.33-.02-.42,.08-.85,.11-1.28-.4,.98-.49,1.99-.37,3.02,.04,.31,.11,.62,.15,.93,.06,.36-.32,.3-.53,.37-.07,.02-.31-.11-.33-.18-.14-.68-.31-1.37-.35-2.06-.04-.65,.07-1.3,.11-1.82-.5,.77-.42,1.78-.5,2.77h-.1c-.03-.13-.06-.26-.08-.4-.18-1.07-.36-2.14-.53-3.21-.01-.08,.09-.25,.16-.27,1.49-.24,2.97-.46,4.46-.69,.02,0,.05,.02,.09,.03,.19,1.49-.24,2.87-.75,4.24Zm29.34,2.46c.24,.17,.44,.32,.66,.44,.27,.15,.24,.27,.02,.4-.86,.49-1.73,.97-2.59,1.45-.39,.21-.78,.42-1.21,.59,1.04-.96,2.08-1.93,3.12-2.88Zm-2.82-.68s.05-.09,.08-.12c.16-.19,.32-.38,.48-.57,.29,.23,.58,.45,.87,.68,0,0,0,0,.01,0,0,0,0,0,0,.01,.33,.12,.65,.24,1.06,.4-1.46,1.27-2.82,2.45-4.5,3.29-.03-.03-.06-.07-.1-.1,.17-.11,.36-.2,.5-.33,.99-1,1.98-2,2.96-3.01,.06-.06,.06-.17,.08-.26t0,0h0c-.15,.1-.33,.19-.46,.31-.66,.62-1.31,1.25-1.96,1.87-.08,.07-.19,.12-.37,.12,.45-.77,.9-1.53,1.35-2.29Zm-.41-1.19s.06,.16,.02,.22c-.41,.79-.7,1.64-1.46,2.26-.57,.46-1.16,.9-1.75,1.35-.06,.05-.15,.06-.26,.05,.89-.83,1.61-1.74,2.1-2.78,.02-.05-.02-.11-.05-.23-.69,1.12-1.51,2.07-2.63,2.82,1.12-1.35,2-2.8,2.62-4.45,.47,.25,.94,.5,1.39,.76Zm-1.6-.73l-.76,1.46s-.08-.03-.13-.05c.23-.49,.46-.99,.69-1.48,.07,.02,.13,.04,.2,.07Zm-1.06-.25c.13-.28,.27-.24,.51-.13-.34,1.06-1.72,3.28-2.84,3.79,.05-.11,.06-.19,.11-.24,.99-1.02,1.66-2.2,2.22-3.43Zm-1.59-.74c.04-.07,.24-.12,.35-.1,.22,.05,.42,.19,.64,.24,.43,.11,.41,.29,.25,.59-.67,1.22-1.54,2.31-2.58,3.3-.18,.18-.27,.49-.66,.45,.08-.36,.16-.71,.24-1.05-.06-.02-.13-.03-.19-.04-.08,.2-.15,.4-.24,.6-.04,.1-.1,.25-.19,.27-.12,.02-.28-.06-.42-.09,.05-.1,.07-.22,.14-.3,.3-.33,.66-.61,.91-.96,.34-.46,.62-.95,.9-1.43,.29-.49,.54-.99,.84-1.47Zm-2.04-.68c.02-.2,.19-.26,.43-.17,.35,.14,.72,.25,1.08,.37,.18,.07,.3,.15,.17,.35-.85,1.3-1.83,2.52-2.96,3.63-.02,.02-.04,.06-.06,.09-.03-.02-.06-.04-.09-.06,.32-.68,.64-1.38,.96-2.06,.11-.23,.23-.45,.34-.68,.02-.05,.04-.14,.01-.17-.42-.48,.09-.88,.13-1.31Zm-2.07,4.42c-.07-.03-.13-.06-.2-.09,.31-.53,.61-1.06,.92-1.59,.05,.02,.1,.05,.15,.07-.29,.54-.58,1.07-.87,1.61Zm-3.13-5.94c.04-.09,.22-.2,.3-.18,.51,.1,1.02,.23,1.52,.35,.26,.06,.42,.15,.27,.43-.53,.99-1.04,2-1.56,2.99-.19,.36-.44,.69-.62,1.05-.18,.36-.46,.33-.77,.22,.39-.52,.76-1.03,1.14-1.54-.04-.03-.09-.06-.14-.09-.5,.53-1.01,1.06-1.52,1.59-.05-.03-.1-.07-.15-.1,.6-.86,1.45-1.57,1.95-2.47-.76,.75-1.51,1.51-2.27,2.25-.09,.08-.25,.11-.37,.16-.02-.04-.04-.08-.07-.11,.33-.54,.72-1.06,.99-1.63,.46-.96,.86-1.96,1.29-2.93Zm-2.86,14.82c.91,.1,1.79-.32,2.73-.06-.2,.33-2.1,.37-2.73,.06Zm3.43,.81s0,.07,0,.11c-1.32-.07-2.65-.14-3.97-.2,0-.04,0-.08,0-.13,1.33-.07,2.66-.26,3.97,.22Zm-1.92-1.06c-.34-.06-.68-.12-1.03-.18,0-.02,0-.04,0-.06,.35,.03,.7,.07,1.04,.1,0,.05-.02,.1-.02,.14Zm-.93-.51s0-.07,0-.11c.78-.07,1.54-.33,2.29-.07-.73,.06-1.5,.12-2.28,.18Zm-6.01-.02c-.29,.1-.54,.28-.81,.41-.89,.43-1.79,.35-2.51-.32-.37-.35-.62-.79-.93-1.19-.16-.21-.36-.41-.51-.63-.06-.09-.09-.22-.07-.32,.17-.72,.82-1.07,1.86-1.01,1.24-.01,2.72,.99,3.22,2.11,.04,.09,.07,.18,.11,.27,.2,.45,.15,.5-.37,.68Zm2.68,5.82s-.04,.05-.07,.07c-.74-.47-1.47-.94-2.21-1.41,.04-.05,.08-.1,.13-.15,.72,.5,1.43,.99,2.15,1.49Zm.38-15.74c.33-.63,.76-1.21,.74-2.03-.19,.36-.33,.64-.49,.9-.16,.28-.34,.55-.51,.82-.21,.33-.54,.19-.92,.13,.66-1.51,1.25-3.01,1.16-4.73-.2,.77-.32,1.47-.57,2.13-.27,.74-.63,1.45-.99,2.15-.21,.41-.31,.42-.89,.23,.72-1.43,.97-2.96,1-4.51,0-.03-.04-.05-.11-.13-.07,.39-.11,.72-.19,1.06-.23,1.1-.52,2.18-1.02,3.21-.17,.37-.42,.49-.92,.37,.48-1.07,.88-2.13,.78-3.3-.07,.24-.12,.49-.21,.73-.3,.79-.59,1.59-.92,2.37-.12,.29-.48,.36-1.08,.24,.59-1.51,.67-3.06,.46-4.64-.28,1.61-.26,3.27-1.14,4.76,.31-1.29,.59-2.59,.57-3.92-.03,0-.07-.01-.1-.02-.1,.47-.18,.95-.31,1.41-.23,.81-.48,1.62-.73,2.42-.05,.15-.79,.38-.94,.28-.06-.04-.07-.18-.06-.27,.12-.92,.26-1.83,.38-2.75,.02-.14-.01-.29-.02-.49-.15,.68-.24,1.31-.44,1.92-.19,.58-.07,1.25-.71,1.71,.02-.27,.04-.53,.04-.8,.02-1.39,.04-2.78,.07-4.18,0-.09,.14-.24,.22-.24,.99-.06,1.99-.11,2.98-.13,.81-.02,1.63-.03,2.44,.02,1.4,.08,2.79,.21,4.18,.32,.36,.03,.51,.12,.43,.5-.31,1.49-.77,2.92-1.74,4.18-.09,.12-.24,.21-.43,.27Zm1.23,.2c-.24,.03-.35-.08-.2-.28,.99-1.43,1.29-3.02,1.42-4.71,.23,.01,.49,0,.74,.04,.49,.08,.97,.2,1.46,.27,.33,.05,.42,.19,.28,.42-.65,1.14-1.3,2.28-1.97,3.41-.16,.27-.39,.51-.61,.76-.08,.1-.22,.16-.33,.24-.03-.02-.07-.05-.1-.07,.32-.76,.87-1.47,.82-2.31-.04-.01-.08-.02-.12-.03-.05,.12-.09,.25-.15,.37-.28,.57-.55,1.14-.86,1.7-.06,.1-.25,.18-.39,.2Zm.47,11.78s0-.08,0-.12c.2-.03,.41-.07,.62-.08,.71-.03,1.43-.06,2.14-.08,.09,0,.2,0,.29,.02,.5,.14,.99,.28,1.37,.39-1.39,.34-2.89-.14-4.41-.12Zm2.45-1.81c0-.06,.01-.11,.02-.16,.36,.05,.71,.11,1.07,.16,.36,.05,.72,.09,1.13,.13-.81,.48-1.49-.07-2.22-.13Zm2.61-8.99c-.12,.07-.35,0-.54,0,.05-.12,.07-.27,.16-.37,.67-.72,1.03-1.56,1.21-2.47,.09-.44,.13-.88,.2-1.32-.05,0-.1,0-.15,0-.31,1.34-.68,2.67-1.89,3.66,.27-.51,.56-1.02,.8-1.55,.3-.66,.57-1.34,.85-2.01,.1-.24,.16-.5,.29-.72,.04-.07,.26-.13,.37-.1,.67,.21,1.34,.44,2.02,.67-.12,.27-.23,.51-.33,.76-.03,0-.06,0-.08,0-.04-.2-.07-.4-.11-.61-.18,.58-.34,1.15-.54,1.69-.38,1.06-1.24,1.78-2.26,2.37Zm-4.2,20.08c.38-.24,.68-.43,.98-.63,1.87-1.21,3.22-2.79,4.15-4.63,.52-1.02,.94-2.08,1.34-3.15,.34-.9,.25-1.85,.07-2.78-.03-.19-.04-.38-.07-.57,.06-.02,.11-.05,.17-.07,1.92,1.13,3.85,2.25,5.75,3.4,.75,.45,1.47,.96,2.18,1.46,.25,.17,.44,.41,.66,.61,.47,.45,.94,.9,1.41,1.34,.12,.11,.28,.19,.44,.3-5.1,3.32-10.72,4.86-17.1,4.73Zm28.05-4.38c1.16-.03,2.31-.06,3.47-.08,0,.03,0,.07,0,.1-1.15,.22-2.3,.24-3.47-.01Z"/>
    <path d="M71.02,62.99c-1.3-1.82-2.59-2.52-3.7-2.89,2.17,1.53,2.98,3.67,3.57,5.9-.35-.74-.7-1.48-1.07-2.22-.17-.33-.37-.65-.58-.96-.05-.07-.19-.1-.3-.15,.26-.24-.09-.35-.24-.49-.19-.18-.43-.31-.62-.49-.26-.23-.49-.49-.75-.73-.78-.71-1.79-.97-2.85-1.04-1.14-.07-2.28-.03-3.45-.03,0-.23,.28-.32,.54-.4,.26-.08,.53-.13,.79-.21,.12-.04,.3-.11,.33-.2,.18-.57,.8-.57,1.26-.64,.98-.16,2-.31,2.99-.24,2.77,.2,4.96,1.66,5.83,4.1-.28-.39-.54-.79-.84-1.17-1.43-1.8-3.47-2.45-5.87-2.4-.69,.01-1.37,.06-2.06,.1,0,.03,0,.06-.01,.1,.23,.04,.46,.11,.7,.11,1.69,.01,3.11,.61,4.38,1.55,.89,.66,1.59,1.43,1.96,2.4Z"/>
    <path d="M66.91,62.29c-1.74-.98-3.7-1.1-5.6-1.41-.01,.05-.03,.09-.04,.14,.36,.08,.73,.15,1.09,.24,2.38,.61,4.17,1.79,4.88,3.95,.12,.35,.07,.75,.02,1.14-.23-1.59-1.1-2.81-2.72-3.62,1.09,1.2,1.41,2.6,1.62,3.99-.33-.8-.66-1.66-1.05-2.49-.58-1.24-1.74-1.97-3.11-2.43-1.13-.38-2.31-.6-3.53-.58-.14,0-.27,.02-.44,.1,2.19,.4,3.43,1.53,3.74,3.42-.31-.69-.63-1.39-1.26-1.94-.56-.49-1.23-.8-1.99-1.02-.35-.1-.66-.32-.99-.49,0-.04-.01-.09-.02-.13,.2-.1,.39-.22,.61-.28,.22-.06,.46-.1,.69-.09,1.14,.04,2.24-.39,3.41-.17,1.4,.27,2.78,.56,4.03,1.19,.24,.12,.44,.33,.65,.49Z"/>
    <path d="M51.74,63.04c.07-.47,.69-.82,1.42-.86,.67-.04,1.39-.02,1.99-.23,.51-.19,.97-.27,1.5-.24,1.91,.13,3.77,1.98,3.64,3.63,0,.05-.02,.09-.06,.15-.23-.95-.62-1.83-1.46-2.51-.86-.69-1.93-.91-3.07-1.01,3.32,1.19,4.16,3.57,4.11,6.36-.18-.76-.28-1.53-.55-2.27-.75-2.06-2.04-3.3-4.54-3.39-.58-.02-1.15-.06-1.73-.09l-.06,.12c.26,.22,.51,.45,.78,.66,.93,.7,1.72,1.48,2.24,2.45,.17,.32,.27,.66,.33,1.02-.32-.7-.74-1.36-1.34-1.9-.75-.67-1.54-1.29-2.34-1.92-.09-.07-.32-.04-.48-.03-.13,0-.26,.03-.39,.05h.01Z"/>
    <path d="M45.66,62.6c.47,.02,.95,.05,1.42,.07,.11,0,.27,.01,.32-.04,.35-.33,.79-.31,1.23-.22,1.11,.22,1.9,.83,2.5,1.64,.48,.65,.86,1.35,1.03,2.12,.11,.51,.09,.58-.45,1,0-.17-.06-.32,0-.4,.29-.38,.14-.74-.04-1.1-.62-1.28-1.52-2.34-3.07-2.86-.25-.08-.53-.08-.8-.12-.01,.04-.02,.07-.03,.11,.03,.03,.06,.08,.1,.09,1.91,.48,3.07,1.63,3.76,3.18,.06,.14,.02,.3,.02,.46-.04,0-.07,0-.11,.01-.03-.05-.08-.09-.1-.14-.42-1.17-1.34-1.98-2.51-2.61-.86-.46-1.79-.76-2.8-.85-.19-.02-.37-.13-.55-.19,.02-.05,.04-.1,.06-.15Z"/>
    <path d="M31.34,61.94c-.49-.08-.9-.02-1.13,.36-.29,.48-.5,.98-.46,1.53,.34-.73,.88-1.31,1.62-1.76,.58-.35,1.19-.33,1.58,.04,.04,.04,.06,.09,.11,.18-.33-.04-.61-.11-.88-.1-.73,.04-1.14,.52-1.52,.96-.81,.96-1.4,2.02-1.45,3.25,0,.13,0,.27-.03,.4-.03,.14-.08,.27-.14,.41-.04-1.27-.05-2.54,.29-3.79,.15-.54,.23-1.1,.72-1.49,.21-.17,.5-.29,.78-.37,.25-.07,.5,0,.52,.38Z"/>
    <path d="M23.59,61.01c-1.9,.09-3.08,1.12-4.06,2.41-.03-.02-.07-.03-.1-.05,.09-.18,.15-.37,.27-.54,.72-.98,1.63-1.77,2.96-2.1,.31-.08,.65-.08,.98-.09,.34-.01,.69,0,1.03,0,.48-.02,.74,.12,.78,.45-.24-.04-.47-.1-.7-.1-.58,0-.97,.31-1.32,.64-.85,.79-1.37,1.74-1.76,2.72-.09-.78,.81-2.53,1.92-3.35Z"/>
    <path d="M64.43,57.63c.1-.34,.46-.32,.7-.32,1.17,.02,2.34,.11,3.48,.41,1,.26,1.98,.55,2.78,1.17,.49,.38,.91,.83,1.36,1.25-.03,.03-.07,.06-.1,.09-.06-.04-.14-.07-.19-.13-1.22-1.32-2.88-1.87-4.72-2.11-.81-.1-1.61-.22-2.42-.32-.28-.03-.57-.03-.89-.05Z"/>
    <path d="M41.66,62.44c.29-.27,.54-.3,.85-.12,.48,.28,1.06,.48,1.46,.82,.58,.5,1.08,1.09,1.23,1.82,.21,1.03-.12,2.02-.24,3.03-.04,0-.08,0-.13,0,.02-.38,.05-.77,.06-1.15,.02-.47,.07-.94,.02-1.41-.09-.87-.68-1.51-1.44-2.05-.32-.23-.65-.46-1-.66-.23-.13-.51-.18-.82-.28Z"/>
    <path d="M36.7,67.9c.14-1.41,.3-2.78,.05-4.16-.05-.29-.18-.57-.24-.86-.02-.1,.05-.22,.08-.33,.11,.07,.29,.13,.31,.22,.13,.57,.32,1.16,.31,1.73,0,.92-.13,1.84-.23,2.76-.02,.2-.17,.4-.27,.63Z"/>
    <path d="M29.86,61.56c-.1,.01-.19,.05-.27,.04-.69-.14-1.26,.3-1.42,.79-.29,.91-.54,1.82-.8,2.74-.02,.06-.02,.12-.09,.18-.01-.18-.06-.36-.03-.53,.14-.77,.25-1.54,.46-2.29,.17-.57,.57-1.02,1.28-1.2,.4-.1,.7-.03,.87,.28Z"/>
    <path d="M38.1,62.72c.63,.34,.88,.89,.87,1.48-.01,.55-.18,1.1-.34,1.65-.14,.49-.34,.96-.51,1.44-.04,0-.09-.02-.13-.03,.1-.42,.17-.85,.3-1.26,.21-.7,.43-1.39,.24-2.12-.07-.28-.26-.55-.39-.82-.05-.1-.11-.19-.16-.28l.13-.06Z"/>
    <path d="M43.46,65.26c-.26-.42-.48-.8-.73-1.16-.37-.52-.83-.97-1.47-1.25-.4-.17-.8-.31-1.27-.15-.09,.03-.25-.09-.38-.14,.08-.08,.15-.19,.26-.22,.9-.24,1.59,.16,2.21,.64,.74,.57,1.15,1.32,1.41,2.13,0,.03-.01,.07-.03,.15Z"/>
    <path d="M51.73,63.03c.11,.09,.2,.2,.32,.27,.81,.48,1.31,1.16,1.65,1.95,.03,.08,.04,.16,.05,.25,0,.07,0,.14-.07,.22-.07-.16-.12-.33-.21-.49-.57-1.02-1.4-1.78-2.69-2.12-.19-.05-.35-.17-.53-.27,.02-.05,.05-.09,.07-.14,.48,.11,.95,.23,1.43,.34,0,0-.01,0-.01,0Z"/>
    <path d="M24.08,62.68c.95-.96,2.16-1.52,3.61-1.66,.2-.02,.43,.11,.63,.24-1.66,0-2.98,.64-4.24,1.43Z"/>
    <path d="M21.86,60.71c-1.75-.13-2.75,.9-3.86,1.81,.18-.42,.96-1.21,1.64-1.55,.48-.24,1.02-.4,1.55-.54,.32-.09,.43,0,.67,.28Z"/>
    <path d="M34.14,65.66c-.28-1.48,.73-3.68,1.8-3.78-1.14,1.1-1.74,2.34-1.8,3.78Z"/>
    <path d="M44.08,62.99c1.19,.05,2.87,1.52,2.9,2.56-.37-.45-.7-1-1.18-1.42-.47-.42-1.09-.73-1.72-1.14Z"/>
    <path d="M44.02,57.84c-.66-.74-1.32-1.48-1.97-2.21,.03-.03,.07-.07,.1-.1,.11,.05,.25,.07,.32,.15,.57,.69,1.12,1.39,1.68,2.09-.04,.03-.08,.05-.12,.08Z"/>
    <path d="M37.58,57.89c0-.67,0-1.35,.03-2.02,0-.09,.19-.17,.29-.26,.07,.07,.21,.15,.2,.2-.14,.7-.31,1.39-.46,2.08-.02,0-.04,0-.06,0Z"/>
    <path d="M40.23,58.25c-.27-.61-.53-1.22-.81-1.83-.06-.14-.17-.27-.21-.42-.03-.1,.01-.21,.02-.31,.09,.05,.24,.09,.27,.17,.21,.52,.41,1.04,.6,1.57,.09,.26,.15,.54,.23,.8-.03,0-.06,.01-.09,.02Z"/>
    <path d="M40.76,55.72c.09,.04,.23,.07,.26,.14,.37,.71,.73,1.43,1.09,2.15,.01,.03,0,.07,0,.17-.51-.83-.98-1.59-1.45-2.36,.04-.03,.07-.07,.11-.1Z"/>
    <path d="M35.01,57.21c.12-.77,.13-1.56,.66-2.23,.25,.44-.11,.78-.21,1.15-.1,.37-.29,.72-.45,1.08Z"/>
    <path d="M35.12,54.3c-.27,.72-.83,1.3-1.25,1.95-.05-.02-.1-.05-.15-.07l1.18-1.98c.07,.03,.15,.07,.22,.1Z"/>
    <path d="M38.41,57.21c-.39-.77-.19-1.55,.42-1.53-.14,.51-.28,1.01-.42,1.53Z"/>
    <path d="M36.23,56.95c-.13-.44-.26-.86-.39-1.27l.1-.08c.14,.08,.35,.14,.42,.25,.27,.44,.23,.73-.13,1.1Z"/>
    <path d="M40.45,57.21c-.23-.47-.45-.95-.68-1.43,.22,.04,.39,.07,.6,.11-.33,.42,.09,.83,.21,1.27-.04,.01-.09,.03-.13,.04Z"/>
    <path d="M43.92,56.78c-.44-.44-.89-.88-1.33-1.31,.06-.04,.11-.09,.17-.13,.47,.42,.85,.91,1.25,1.38-.03,.02-.06,.04-.09,.06Z"/>
    <path d="M43.12,55.09c.38,.39,.76,.78,1.14,1.18-.03,.03-.07,.05-.1,.08-.41-.37-.82-.74-1.22-1.11,.06-.05,.12-.1,.19-.15Z"/>
    <path d="M34.55,56.05c.21-.44,.41-.88,.63-1.35q.27,.3-.63,1.35Z"/>
    <path d="M29.82,54.69c-.22,.18-.34,.3-.49,.39-.05,.03-.19-.01-.26-.05-.1-.06-.19-.15-.28-.22,.32-.04,.64-.07,1.03-.12Z"/>
    <path d="M52.03,67.87c.06-.26,.11-.53,.17-.79,.05,0,.1,.01,.15,.02-.03,.27-.07,.53-.1,.8-.07,0-.14-.02-.22-.02Z"/>
    <path d="M25.06,34.1l-.06,1.15-.13-.02c.06-.38,.13-.77,.19-1.14Z"/>
    <path d="M28.94,53.91c-.18-.09-.35-.19-.6-.33,0,0,0,0-.01,0,0,0,0,0,0,0,.46-.15,.55,.07,.61,.33Z"/>
  </g>
</svg>